HIERARCHY
ROOT Hips
{
	OFFSET 0.00000 0.00000 0.00000
	CHANNELS 6 Xposition Yposition Zposition Zrotation Yrotation Xrotation 
	JOINT LHipJoint
	{
		OFFSET 0 0 0
		CHANNELS 3 Zrotation Yrotation Xrotation
		JOINT LeftUpLeg
		{
			OFFSET 1.70593 -1.62653 0.87602
			CHANNELS 3 Zrotation Yrotation Xrotation
			JOINT LeftLeg
			{
				OFFSET 2.32330 -6.38322 0.00000
				CHANNELS 3 Zrotation Yrotation Xrotation
				JOINT LeftFoot
				{
					OFFSET 2.45016 -6.73177 0.00000
					CHANNELS 3 Zrotation Yrotation Xrotation
					JOINT LeftToeBase
					{
						OFFSET 0.13029 -0.35798 1.96980
						CHANNELS 3 Zrotation Yrotation Xrotation
						End Site
						{
							OFFSET 0.00000 -0.00000 1.01270
						}
					}
				}
			}
		}
	}
	JOINT RHipJoint
	{
		OFFSET 0 0 0
		CHANNELS 3 Zrotation Yrotation Xrotation
		JOINT RightUpLeg
		{
			OFFSET -1.80599 -1.62652 0.87602
			CHANNELS 3 Zrotation Yrotation Xrotation
			JOINT RightLeg
			{
				OFFSET -2.45375 -6.74162 0.00000
				CHANNELS 3 Zrotation Yrotation Xrotation
				JOINT RightFoot
				{
					OFFSET -2.45828 -6.75406 0.00000
					CHANNELS 3 Zrotation Yrotation Xrotation
					JOINT RightToeBase
					{
						OFFSET -0.13801 -0.37917 1.88456
						CHANNELS 3 Zrotation Yrotation Xrotation
						End Site
						{
							OFFSET -0.00000 -0.00000 0.97281
						}
					}
				}
			}
		}
	}
	JOINT LowerBack
	{
		OFFSET 0 0 0
		CHANNELS 3 Zrotation Yrotation Xrotation
		JOINT Spine
		{
			OFFSET 0.01003 2.00576 -0.14267
			CHANNELS 3 Zrotation Yrotation Xrotation
			JOINT Spine1
			{
				OFFSET 0.00908 2.01191 0.01660
				CHANNELS 3 Zrotation Yrotation Xrotation
				JOINT Neck
				{
					OFFSET 0 0 0
					CHANNELS 3 Zrotation Yrotation Xrotation
					JOINT Neck1
					{
						OFFSET -0.05849 1.60301 0.18934
						CHANNELS 3 Zrotation Yrotation Xrotation
						JOINT Head
						{
							OFFSET 0.01775 1.59435 -0.07960
							CHANNELS 3 Zrotation Yrotation Xrotation
							End Site
							{
								OFFSET 0.01210 1.70732 -0.05248
							}
						}
					}
				}
				JOINT LeftShoulder
				{
					OFFSET 0 0 0
					CHANNELS 3 Zrotation Yrotation Xrotation
					JOINT LeftArm
					{
						OFFSET 3.15315 1.26460 0.30667
						CHANNELS 3 Zrotation Yrotation Xrotation
						JOINT LeftForeArm
						{
							OFFSET 4.97694 -0.00000 -0.00000
							CHANNELS 3 Zrotation Yrotation Xrotation
							JOINT LeftHand
							{
								OFFSET 3.14391 -0.00000 -0.00000
								CHANNELS 3 Zrotation Yrotation Xrotation
								JOINT LeftFingerBase
								{
									OFFSET 0 0 0
									CHANNELS 3 Zrotation Yrotation Xrotation
									JOINT LeftHandIndex1
									{
										OFFSET 0.59358 -0.00000 -0.00000
										CHANNELS 3 Zrotation Yrotation Xrotation
										End Site
										{
											OFFSET 0.47856 -0.00000 -0.00000
										}
									}
								}
								JOINT LThumb
								{
									OFFSET 0 0 0
									CHANNELS 3 Zrotation Yrotation Xrotation
									End Site
									{
										OFFSET 0.48587 -0.00000 0.48587
									}
								}
							}
						}
					}
				}
				JOINT RightShoulder
				{
					OFFSET 0 0 0
					CHANNELS 3 Zrotation Yrotation Xrotation
					JOINT RightArm
					{
						OFFSET -3.25568 1.35581 0.18982
						CHANNELS 3 Zrotation Yrotation Xrotation
						JOINT RightForeArm
						{
							OFFSET -4.90473 -0.00000 0.00000
							CHANNELS 3 Zrotation Yrotation Xrotation
							JOINT RightHand
							{
								OFFSET -3.21621 0.00006 -0.00004
								CHANNELS 3 Zrotation Yrotation Xrotation
								JOINT RightFingerBase
								{
									OFFSET 0 0 0
									CHANNELS 3 Zrotation Yrotation Xrotation
									JOINT RightHandIndex1
									{
										OFFSET -0.62353 -0.00000 -0.00000
										CHANNELS 3 Zrotation Yrotation Xrotation
										End Site
										{
											OFFSET -0.50270 -0.00000 -0.00000
										}
									}
								}
								JOINT RThumb
								{
									OFFSET 0 0 0
									CHANNELS 3 Zrotation Yrotation Xrotation
									End Site
									{
										OFFSET -0.51038 -0.00000 0.51038
									}
								}
							}
						}
					}
				}
			}
		}
	}
}
MOTION
Frames: 10
Frame Time: .0083333
9.1974 16.0665 -2.2641 2.3670 -10.4227 6.6368 0.0000 0.0000 0.0000 -23.5628 -4.7060 -33.7241 3.2965 11.1602 32.8220 0.1505 -3.4525 -6.9454 0.0181 0.8675 2.3842 0.0000 0.0000 0.0000 16.7207 6.4681 -3.7095 -10.0159 -17.4188 59.5417 -0.4690 -10.5020 13.3046 -0.0051 0.4634 -1.2732 -3.7690 4.2321 -1.4160 -2.2317 5.5845 -3.4004 -0.2656 2.8537 -2.8471 -4.3124 -1.3104 -12.5379 3.1820 -1.3840 9.3595 1.5817 -0.6233 4.9109 -0.0000 0.0000 0.0000 -89.3295 22.8719 -26.8110 4.5116 -7.7584 -0.3061 -0.0000 -0.0000 27.5261 15.4087 -7.2723 -1.9981 -7.1250 0.0000 -0.0000 -8.3140 22.4634 4.5532 -0.0000 0.0000 0.0000 87.1210 11.7490 29.0450 -30.9100 41.6608 -12.0100 0.0000 -0.0000 -19.9313 -27.8575 -36.0979 17.2960 7.1250 -0.0000 -0.0000 8.4981 -69.3213 -4.9625
9.1991 16.0921 -2.0663 2.1215 -10.4011 6.7555 0.0000 0.0000 0.0000 -23.4724 -4.6604 -32.8279 3.2116 11.0299 32.3808 0.1723 -3.4566 -7.4070 0.0128 0.7315 2.0102 0.0000 0.0000 0.0000 17.1423 7.3495 -5.9158 -10.7685 -17.8199 62.0274 -0.3920 -8.3868 11.7876 -0.1570 2.5527 -7.0357 -3.6528 4.1424 -1.2162 -2.0615 5.4559 -3.4886 -0.1744 2.7917 -3.0526 -4.0158 -1.1761 -12.5210 2.5732 -1.1839 9.4651 1.3595 -0.5556 4.9278 0.0000 0.0000 0.0000 -89.2505 21.3374 -27.2689 4.4882 -7.7188 -0.3029 -0.0000 -0.0000 28.4001 15.5486 -7.3264 -2.0321 -7.1250 0.0000 -0.0000 -8.2102 22.4023 4.5068 0.0000 0.0000 0.0000 87.3523 10.7499 29.4005 -29.9973 40.8911 -11.4078 0.0000 -0.0000 -20.0598 -27.8487 -36.6732 17.5128 7.1250 -0.0000 -0.0000 9.0883 -69.8901 -5.4248
9.2096 16.1252 -1.8536 2.1315 -10.2928 6.6894 0.0000 0.0000 0.0000 -23.7693 -4.5449 -31.6411 3.1253 10.8951 31.9269 0.2060 -3.5481 -8.0841 0.0075 0.5582 1.5339 0.0000 0.0000 0.0000 17.1261 8.0437 -7.8907 -11.4433 -18.1452 64.2128 -0.3083 -6.1475 10.1389 -0.5441 4.7258 -13.1281 -3.6436 4.0583 -1.0623 -1.9915 5.3367 -3.5162 -0.1192 2.7343 -3.1702 -3.5709 -1.1005 -12.5223 1.8234 -1.0709 9.6550 1.0624 -0.5351 4.9770 -0.0000 0.0000 0.0000 -89.1697 19.9274 -27.6435 4.5997 -7.9077 -0.3181 -0.0000 -0.0000 29.3376 16.5935 -6.9072 -2.0524 -7.1250 0.0000 -0.0000 -7.4610 22.7921 4.0213 -0.0000 0.0000 0.0000 87.7206 9.4488 29.4050 -29.3633 40.3414 -10.9951 0.0000 -0.0000 -19.7926 -26.9967 -36.5312 16.8703 7.1250 -0.0000 -0.0000 10.1153 -69.4774 -5.9486
9.2231 16.1737 -1.6316 2.4953 -10.1322 6.4009 0.0000 0.0000 0.0000 -24.5636 -4.2404 -30.2506 3.0555 10.7843 31.5559 0.2528 -3.6472 -8.9423 0.0135 -0.7512 -2.0644 0.0000 0.0000 0.0000 16.6279 8.4018 -9.5491 -12.0117 -18.3956 66.0260 -0.2007 -4.1236 8.0378 -0.9687 6.2661 -17.5584 -3.8400 3.9633 -0.8428 -2.0688 5.1958 -3.4745 -0.1024 2.6682 -3.2577 -3.4913 -1.0978 -12.3947 1.6174 -1.0613 9.7921 0.9865 -0.5427 4.9968 0.0000 0.0000 0.0000 -89.1141 18.6583 -28.0301 4.7743 -8.2032 -0.3426 -0.0000 -0.0000 30.9501 18.3316 -7.9318 -2.6179 -7.1250 0.0000 -0.0000 -6.1728 21.6483 3.4800 0.0000 0.0000 0.0000 88.0487 7.8858 29.3284 -28.9132 39.9435 -10.7050 0.0000 -0.0000 -19.6223 -25.7944 -36.2581 15.9518 7.1250 -0.0000 -0.0000 11.4467 -68.8301 -6.5722
9.2290 16.2148 -1.4182 2.9009 -9.7795 6.1935 0.0000 0.0000 0.0000 -25.3744 -4.0632 -28.9378 2.9675 10.6422 31.0826 0.2907 -3.6226 -9.5829 0.0919 -1.9553 -5.3822 0.0000 0.0000 0.0000 16.1592 8.5443 -11.3092 -12.4972 -18.5930 67.5564 -0.1121 -3.1112 6.0087 -1.2226 7.0133 -19.7547 -4.1428 3.8255 -0.7239 -2.1160 5.0030 -3.4001 0.0152 2.5788 -3.2650 -4.0307 -1.0872 -11.8966 2.1449 -1.0348 9.3942 1.2412 -0.5147 4.7958 -0.0000 -0.0000 0.0000 -88.9986 17.1524 -28.2970 4.8841 -8.3888 -0.3584 -0.0000 -0.0000 32.6563 19.8770 -9.6914 -3.4829 -7.1250 0.0000 -0.0000 -5.0601 19.7078 3.0692 -0.0000 -0.0000 0.0000 88.2700 6.3149 28.9348 -28.3049 39.3955 -10.3167 0.0000 -0.0000 -19.3436 -28.6260 -38.7692 18.8692 7.1250 -0.0000 -0.0000 10.3946 -72.2039 -6.7414
9.2401 16.2426 -1.2025 3.0518 -9.3593 6.1442 0.0000 0.0000 0.0000 -25.7951 -4.2723 -27.5824 2.8792 10.4968 30.6011 0.3311 -3.7403 -10.2297 0.0690 -1.6947 -4.6627 0.0000 0.0000 0.0000 15.9482 8.7746 -13.1544 -12.9088 -18.7490 68.8419 -0.0546 -2.5181 4.2486 -1.2091 6.9757 -19.6435 -4.1365 3.7191 -0.7730 -2.0866 4.8680 -3.3192 0.0536 2.5097 -3.1506 -4.7135 -1.1339 -11.3827 2.7761 -1.0758 8.8836 1.5453 -0.5189 4.5615 0.0000 -0.0000 0.0000 -88.8328 15.4019 -28.3945 5.0633 -8.6913 -0.3850 -0.0000 -0.0000 33.4979 20.6770 -10.6398 -3.9861 -7.1250 0.0000 -0.0000 -4.5073 18.6458 2.8385 0.0000 -0.0000 0.0000 88.4178 4.7953 28.5130 -27.7130 38.8507 -9.9431 0.0000 -0.0000 -18.9491 -27.1455 -38.5057 17.7042 7.1250 -0.0000 -0.0000 12.1930 -71.4483 -7.7152
9.2532 16.2666 -0.9881 2.9836 -9.0828 6.1070 0.0000 0.0000 0.0000 -25.9278 -4.3537 -26.3600 2.8258 10.4076 30.3071 0.3700 -4.2538 -10.8208 0.0184 -0.8759 -2.4075 0.0000 0.0000 0.0000 15.9866 9.2425 -14.8303 -13.2448 -18.8688 69.8842 -0.0185 -1.7880 2.5464 -1.1370 6.7720 -19.0415 -3.8950 3.6523 -0.6962 -2.0328 4.7795 -3.3076 -0.0262 2.4601 -3.1623 -4.8344 -1.1578 -11.5283 2.7887 -1.0881 9.3607 1.5687 -0.5305 4.7342 -0.0000 -0.0000 0.0000 -88.7962 13.8669 -24.1158 5.3898 -9.2406 -0.4359 -0.0000 -0.0000 30.0238 20.8864 -10.2229 -3.8744 -7.1250 0.0000 -0.0000 -4.3502 19.0718 2.6977 -0.0000 -0.0000 0.0000 88.7818 3.4704 28.1397 -26.9727 38.1532 -9.4823 0.0000 -0.0000 -18.6127 -25.3791 -37.6192 16.1495 7.1250 -0.0000 -0.0000 13.5213 -70.0157 -8.1365
9.2516 16.2776 -0.7891 2.9855 -8.8318 6.0709 0.0000 0.0000 0.0000 -26.0885 -4.2962 -25.4297 2.8029 10.3689 30.1799 0.4035 -4.7954 -11.3154 0.0133 -0.7452 -2.0479 0.0000 0.0000 0.0000 16.0282 9.7211 -16.5558 -13.5393 -18.9683 70.7925 -0.0002 -1.0777 0.7814 -1.4103 7.5111 -21.2388 -3.9691 3.5635 -0.5107 -1.9363 4.6505 -3.3596 0.1012 2.4015 -3.3311 -4.6814 -1.0850 -11.8220 2.4798 -0.9721 10.1818 1.4579 -0.4921 5.0310 0.0000 -0.0000 0.0000 -88.8819 12.4685 -20.2064 5.6998 -9.7606 -0.4871 -0.0000 -0.0000 27.0846 21.2421 -10.8999 -4.2039 -7.1250 0.0000 -0.0000 -4.1149 18.3240 2.6193 0.0000 -0.0000 0.0000 89.1479 2.0888 27.8186 -26.0790 37.2866 -8.9354 0.0000 -0.0000 -18.7517 -25.1345 -39.8797 16.7424 7.1250 -0.0000 -0.0000 16.9204 -72.0614 -10.9779
9.2499 16.2909 -0.5893 2.7507 -8.5600 6.0474 0.0000 0.0000 0.0000 -25.9937 -4.2837 -24.5931 2.8006 10.3650 30.1669 0.4609 -4.8707 -12.0864 0.0675 -1.6767 -4.6129 0.0000 0.0000 0.0000 16.3331 10.1946 -18.2233 -13.7466 -19.0354 71.4290 -0.0004 -0.5495 -0.8836 -1.5284 7.8058 -22.1256 -3.8523 3.4761 -0.3235 -1.7542 4.5283 -3.4357 0.2107 2.3430 -3.5165 -4.7643 -1.0287 -11.5548 2.4991 -0.8996 10.4122 1.4842 -0.4619 5.0560 0.0000 0.0000 0.0000 -88.8798 11.0073 -16.2410 6.0294 -10.3111 -0.5445 -0.0000 -0.0000 23.6775 21.6496 -11.9834 -4.7113 -7.1250 0.0000 -0.0000 -3.8637 17.1344 2.5598 0.0000 0.0000 0.0000 89.2692 0.5467 27.7626 -25.1969 36.4045 -8.4065 0.0000 -0.0000 -19.0358 -26.4915 -35.5302 16.1528 7.1250 -0.0000 -0.0000 9.7988 -68.3300 -5.5081
9.2563 16.3111 -0.3810 2.4535 -8.2418 6.0335 0.0000 0.0000 0.0000 -25.8551 -4.3139 -23.7119 2.8064 10.3749 30.1994 0.5174 -4.9105 -12.8027 0.1350 -2.3680 -6.5237 0.0000 0.0000 0.0000 16.6713 10.6623 -19.7259 -13.8434 -19.0658 71.7255 -0.0126 -0.0696 -2.1446 -1.2242 7.0175 -19.7673 -3.5272 3.3403 -0.2813 -1.5766 4.3551 -3.4560 0.2163 2.2508 -3.5432 -4.7754 -0.9913 -11.1419 2.4703 -0.8636 10.3560 1.4801 -0.4486 4.9683 0.0000 -0.0000 0.0000 -88.8751 9.5633 -11.7637 6.4803 -11.0609 -0.6281 -0.0000 -0.0000 19.5111 22.0947 -11.9062 -4.7875 -7.1250 0.0000 -0.0000 -3.5504 17.1754 2.3482 0.0000 -0.0000 0.0000 89.4185 -0.7962 27.4063 -24.1860 35.3603 -7.8139 0.0000 -0.0000 -18.2959 -24.8848 -38.1256 15.9808 7.1250 -0.0000 -0.0000 14.8086 -70.3376 -9.0280
